<svg viewBox="0 0 600 322" fill="none" xmlns="http://www.w3.org/2000/svg">
<path d="M573.763 270.66C566.461 231.091 532.215 195.667 491.986 194.888C477.044 194.599 461.276 198.671 447.636 192.567C437.547 188.051 430.543 178.719 421.563 172.276C407.86 162.448 390.025 159.825 373.256 161.607C356.486 163.389 340.444 169.195 324.597 174.954C300.215 146.352 262.072 130.053 224.551 132.2C187.03 134.349 150.997 154.894 130.04 186.092C88.3372 185.572 48.7445 218.56 41.7257 259.672C38.1246 280.765 43.3396 302.675 54.5939 320.825H569.288C574.947 304.317 576.652 286.314 573.763 270.66Z" fill="#F6F5F5"/>
<path d="M527.148 321.231L526.679 320.42C536.108 314.982 544.75 306.796 552.36 296.088C559.568 285.945 565.569 273.772 569.711 260.884C577.953 235.245 580.858 207.91 583.624 181.446C561.609 188.169 540.89 205.815 526.686 229.967C512.322 254.392 504.81 285.153 506.072 314.365L505.137 314.406C503.869 285.019 511.429 254.07 525.881 229.495C540.348 204.893 561.542 186.981 584.032 180.348L584.703 180.149L584.629 180.844C581.835 207.573 578.946 235.215 570.602 261.171C566.432 274.149 560.386 286.411 553.123 296.63C545.434 307.45 536.693 315.727 527.148 321.231Z" fill="#C2E2E9"/>
<path d="M508.25 315.877L507.318 315.798C508.166 305.954 511.239 296.066 516.715 285.563C521.999 275.426 528.811 266.168 534.157 259.235C535.46 257.546 536.798 255.826 538.093 254.165C549.407 239.637 561.11 224.614 566.589 206.297L567.486 206.565C561.958 225.049 550.201 240.142 538.833 254.739C537.538 256.4 536.2 258.117 534.899 259.805C529.579 266.707 522.797 275.922 517.548 285.994C512.128 296.385 509.088 306.159 508.25 315.877Z" fill="#C2E2E9"/>
<path d="M533 267.531C531.705 267.531 530.419 267.447 529.148 267.276L529.274 266.349C534.871 267.102 540.782 266.131 546.371 263.541C551.972 260.948 556.971 256.861 560.831 251.72L561.58 252.281C557.629 257.545 552.505 261.733 546.766 264.389C542.28 266.467 537.587 267.531 533 267.531Z" fill="#C2E2E9"/>
<path d="M542.221 249.086C539.157 238.309 541.259 225.356 547.574 216.085L548.346 216.611C542.18 225.663 540.128 238.309 543.118 248.829L542.221 249.086Z" fill="#C2E2E9"/>
<path d="M559.129 321.346L558.799 320.47C569.408 316.464 578.966 308.273 585.715 297.41C591.442 288.19 595.319 276.936 597.242 263.953C585.476 264.482 573.71 269.22 564.881 277.007L564.262 276.306C573.391 268.256 585.605 263.405 597.77 262.997L598.329 262.978L598.249 263.53C596.337 276.878 592.387 288.442 586.509 297.904C579.655 308.942 569.93 317.266 559.129 321.346Z" fill="#C2E2E9"/>
<path d="M530.682 318.867L530.283 318.019C551.437 308.077 571.009 293.754 586.885 276.601L587.571 277.238C571.615 294.479 551.944 308.875 530.682 318.867Z" fill="#C2E2E9"/>
<path d="M448.97 321.919C440.769 318.84 433.295 313.092 427.359 305.297C421.896 298.122 417.818 289.403 415.568 280.08C411.112 261.635 413.222 241.959 415.548 224.966L415.652 224.206L416.28 224.646C431.221 235.117 446.672 245.942 457.879 260.877C470.359 277.508 474.793 297.061 469.737 313.181L468.844 312.9C473.809 297.067 469.429 277.83 457.13 261.438C446.169 246.831 431.057 236.144 416.37 225.852C414.098 242.585 412.126 261.846 416.476 279.86C418.696 289.058 422.718 297.656 428.103 304.729C433.933 312.384 441.261 318.025 449.298 321.041L448.97 321.919Z" fill="#C2E2E9"/>
<path d="M425.785 241.938L424.945 242.353L461.037 315.416L461.877 315.001L425.785 241.938Z" fill="#C2E2E9"/>
<path d="M444.564 283.953C439.792 283.953 434.989 282.687 430.634 280.277C426.09 277.763 422.345 274.173 419.799 269.898L420.604 269.419C423.063 273.551 426.688 277.023 431.088 279.457C435.487 281.891 440.357 283.116 445.162 283.008L445.183 283.945C444.976 283.951 444.769 283.953 444.564 283.953Z" fill="#C2E2E9"/>
<path d="M93.5914 320.584C82.9327 318.394 72.9687 313.093 63.9778 304.827C55.891 297.392 48.9585 287.788 43.9269 277.054C34.1787 256.254 31.2076 233.224 28.3336 210.95L28.2344 210.18L28.9615 210.452C56.7109 220.835 76.1016 232.781 89.9882 248.049C107.737 267.56 115.245 293.172 109.588 314.886L108.682 314.651C114.262 293.239 106.833 267.96 89.2956 248.679C75.6334 233.66 56.5771 221.868 29.3607 211.602C32.1958 233.563 35.1992 256.229 44.7748 276.657C49.7547 287.281 56.6138 296.786 64.6122 304.139C73.4757 312.288 83.2887 317.512 93.7813 319.667L93.5914 320.584Z" fill="#C2E2E9"/>
<path d="M103.306 315.126C95.6766 300.219 86.5628 285.923 76.2147 272.632C65.8667 259.341 54.2413 246.999 41.6602 235.948L42.2772 235.244C54.9016 246.334 66.5679 258.719 76.9527 272.056C87.3374 285.392 96.4836 299.74 104.139 314.699L103.306 315.126Z" fill="#C2E2E9"/>
<path d="M70.3398 267.437C61.3921 264.311 52.5307 260.626 44.0059 256.483L44.4158 255.642C52.9083 259.767 61.7352 263.439 70.6505 266.555L70.3398 267.437Z" fill="#C2E2E9"/>
<path d="M86.9045 262.06L84.8125 282.854L85.7443 282.948L87.8362 262.153L86.9045 262.06Z" fill="#C2E2E9"/>
<path d="M55.671 320.332C50.1841 320.332 44.5354 318.701 39.2449 315.577C33.9975 312.479 29.2313 308.029 25.4641 302.711C22.4563 298.467 19.1983 290.848 15.7763 280.069C13.2346 272.057 11.5473 265.196 11.5322 265.129L11.3574 264.411L12.0824 264.56C13.0555 264.758 36.0171 269.531 44.2334 276.901L43.6077 277.598C40.2978 274.629 33.7731 271.593 24.7369 268.819C19.2846 267.144 14.4191 266.027 12.6261 265.634C13.7459 270.031 19.8326 293.142 26.23 302.171C29.9217 307.382 34.5887 311.741 39.7239 314.772C45.3057 318.069 51.2867 319.655 57.0195 319.364L57.067 320.298C56.601 320.319 56.1349 320.332 55.671 320.332Z" fill="#C2E2E9"/>
<path d="M52.6029 308.579C43.366 295.733 32.6792 283.898 20.8359 273.405L21.4573 272.704C33.3524 283.244 44.0867 295.128 53.3624 308.031L52.6029 308.579Z" fill="#C2E2E9"/>
<path d="M170.763 321.649L170.153 320.939C182.087 310.664 190.607 296.553 194.148 281.208C197.661 265.982 196.23 249.702 190.124 235.319C182.152 236.726 174.416 240.731 167.732 246.919C161.477 252.71 156.299 260.195 152.758 268.564C146.069 284.373 144.792 302.088 143.985 320.363L143.051 320.322C143.862 301.956 145.148 284.151 151.897 268.2C155.49 259.707 160.746 252.112 167.098 246.231C174.017 239.825 182.052 235.71 190.333 234.333L190.696 234.273L190.84 234.61C197.145 249.256 198.645 265.878 195.061 281.417C191.475 296.957 182.846 311.245 170.763 321.649Z" fill="#C2E2E9"/>
<path d="M156.137 318.339L155.246 318.052C161.827 297.632 171.053 278.134 182.674 260.098L183.462 260.605C171.884 278.572 162.692 297.995 156.137 318.339Z" fill="#C2E2E9"/>
<path d="M169.931 283.326L169.398 282.555C175.295 278.469 182.152 275.675 189.225 274.477L189.382 275.401C182.444 276.576 175.718 279.317 169.931 283.326Z" fill="#C2E2E9"/>
<path d="M387.285 292.278C385.091 292.278 383.307 290.493 383.307 288.299C383.307 286.105 385.091 284.32 387.285 284.32C389.48 284.32 391.264 286.105 391.264 288.299C391.264 290.493 389.48 292.278 387.285 292.278ZM387.285 285.257C385.609 285.257 384.243 286.623 384.243 288.299C384.243 289.975 385.609 291.341 387.285 291.341C388.962 291.341 390.328 289.975 390.328 288.299C390.328 286.623 388.964 285.257 387.285 285.257Z" fill="#DADADA"/>
<path d="M544.072 178.08C541.878 178.08 540.094 176.296 540.094 174.102C540.094 171.907 541.878 170.123 544.072 170.123C546.267 170.123 548.051 171.907 548.051 174.102C548.049 176.296 546.265 178.08 544.072 178.08ZM544.072 171.059C542.396 171.059 541.03 172.425 541.03 174.102C541.03 175.778 542.396 177.144 544.072 177.144C545.749 177.144 547.115 175.778 547.115 174.102C547.115 172.425 545.749 171.059 544.072 171.059Z" fill="#DADADA"/>
<path d="M596.489 241.03C598.428 241.03 599.999 239.458 599.999 237.519C599.999 235.58 598.428 234.009 596.489 234.009C594.55 234.009 592.979 235.58 592.979 237.519C592.979 239.458 594.55 241.03 596.489 241.03Z" fill="#DADADA"/>
<path d="M34.1667 175.507C36.1055 175.507 37.6772 173.935 37.6772 171.996C37.6772 170.058 36.1055 168.486 34.1667 168.486C32.2279 168.486 30.6562 170.058 30.6562 171.996C30.6562 173.935 32.2279 175.507 34.1667 175.507Z" fill="#DADADA"/>
<path d="M3.97869 237.051C1.78437 237.051 0 235.266 0 233.072C0 230.878 1.78437 229.093 3.97869 229.093C6.17301 229.093 7.95737 230.878 7.95737 233.072C7.95737 235.266 6.17301 237.051 3.97869 237.051ZM3.97869 230.03C2.3022 230.03 0.936416 231.395 0.936416 233.072C0.936416 234.748 2.30004 236.114 3.97869 236.114C5.65733 236.114 7.02096 234.748 7.02096 233.072C7.02096 231.395 5.65517 230.03 3.97869 230.03Z" fill="#DADADA"/>
<path d="M220.436 283.151C218.241 283.151 216.457 281.367 216.457 279.173C216.457 276.978 218.241 275.194 220.436 275.194C222.63 275.194 224.414 276.978 224.414 279.173C224.414 281.367 222.63 283.151 220.436 283.151ZM220.436 276.13C218.759 276.13 217.393 277.496 217.393 279.173C217.393 280.849 218.757 282.215 220.436 282.215C222.114 282.215 223.478 280.849 223.478 279.173C223.478 277.496 222.112 276.13 220.436 276.13Z" fill="#DADADA"/>
<path d="M73.866 68.7212C73.866 61.1393 63.3885 54.9922 50.4643 54.9922C37.54 54.9922 27.0625 61.1393 27.0625 68.7212C27.0625 76.3032 37.54 82.4503 50.4643 82.4503C53.2864 82.4503 55.9921 82.1569 58.4971 81.6196C60.247 83.7255 63.2785 85.6069 68.3878 86.6922C68.3878 86.6922 66.5128 83.2508 65.3649 79.3066C70.5583 76.7887 73.866 72.9826 73.866 68.7212Z" fill="white"/>
<path d="M69.7379 87.6951L68.247 87.3779C63.7202 86.4156 60.3586 84.7391 58.242 82.3895C55.7478 82.8943 53.1349 83.1511 50.4702 83.1511C44.0965 83.1511 38.094 81.6882 33.5672 79.0343C28.924 76.3092 26.3672 72.6477 26.3672 68.7208C26.3672 64.7939 28.924 61.1324 33.5672 58.4073C38.094 55.7513 44.0965 54.2905 50.4702 54.2905C56.8438 54.2905 62.8464 55.7534 67.3731 58.4073C72.0164 61.1324 74.5732 64.7939 74.5732 68.7208C74.5732 72.9671 71.5352 76.935 66.2123 79.6708C67.33 83.2568 68.9913 86.325 69.0086 86.3574L69.7379 87.6951ZM58.7706 80.8424L59.0425 81.1682C60.7168 83.1813 63.4182 84.6895 67.0862 85.6583C66.4238 84.2774 65.4226 81.9989 64.6955 79.5004L64.5294 78.9308L65.0623 78.6719C70.2126 76.1733 73.1685 72.5463 73.1685 68.7165C73.1685 61.5337 62.9866 55.6908 50.4702 55.6908C37.9537 55.6908 27.7718 61.5337 27.7718 68.7165C27.7718 75.8993 37.9537 81.7422 50.4702 81.7422C53.1802 81.7422 55.8341 81.4682 58.3542 80.9266L58.7706 80.8424Z" fill="#46B2C8"/>
<path d="M63.6497 65.2886H36.9727V66.225H63.6497V65.2886Z" fill="#46B2C8"/>
<path d="M56.6268 70.4365H36.9707V71.3729H56.6268V70.4365Z" fill="#46B2C8"/>
<path d="M519.344 52.8082C519.344 45.2262 529.821 39.0791 542.745 39.0791C555.67 39.0791 566.147 45.2262 566.147 52.8082C566.147 60.3901 555.67 66.5372 542.745 66.5372C539.923 66.5372 537.218 66.2438 534.713 65.7065C532.963 67.8124 529.931 69.6938 524.822 70.7791C524.822 70.7791 526.697 67.3377 527.845 63.3935C522.654 60.8756 519.344 57.0695 519.344 52.8082Z" fill="white"/>
<path d="M523.476 71.7827L524.205 70.4428C524.222 70.4104 525.884 67.3423 527.001 63.7563C521.679 61.0204 518.641 57.0525 518.641 52.8063C518.641 48.8794 521.197 45.2179 525.841 42.4928C530.367 39.8367 536.37 38.376 542.744 38.376C549.117 38.376 555.12 39.8389 559.647 42.4928C564.29 45.2179 566.847 48.8794 566.847 52.8063C566.847 56.7332 564.29 60.3947 559.647 63.1198C555.12 65.7758 549.117 67.2366 542.744 67.2366C540.079 67.2366 537.468 66.9798 534.972 66.4749C532.855 68.8246 529.491 70.5032 524.967 71.4634L523.476 71.7827ZM542.744 39.7828C530.227 39.7828 520.045 45.6256 520.045 52.8084C520.045 56.6361 522.999 60.2652 528.151 62.7638L528.684 63.0227L528.518 63.5923C527.791 66.0908 526.79 68.3693 526.128 69.7502C529.796 68.7814 532.497 67.2732 534.171 65.2602L534.443 64.9344L534.86 65.0228C537.382 65.5622 540.034 65.8384 542.744 65.8384C555.26 65.8384 565.442 59.9955 565.442 52.8127C565.442 45.63 555.26 39.7828 542.744 39.7828Z" fill="#46B2C8"/>
<path d="M556.236 49.375H529.559V50.3114H556.236V49.375Z" fill="#46B2C8"/>
<path d="M549.215 54.5234H529.559V55.4598H549.215V54.5234Z" fill="#46B2C8"/>
<path d="M338.852 229.096H257.416V320.828H338.852V229.096Z" fill="#D3DFFF"/>
<path d="M339.555 321.529H256.715V228.393H339.555V321.529ZM258.119 320.125H338.151V229.797H258.119V320.125Z" fill="#46B2C8"/>
<path opacity="0.2" d="M338.852 229.096H257.416V268.188H338.852V229.096Z" fill="#1F3C88"/>
<path d="M313.464 274.537C321.932 266.069 321.932 252.339 313.464 243.871C304.996 235.403 291.266 235.403 282.798 243.871C274.33 252.339 274.33 266.069 282.798 274.537C291.266 283.005 304.996 283.005 313.464 274.537Z" fill="white"/>
<path d="M466.285 254.115H129.983C126.01 254.115 122.789 250.894 122.789 246.922V7.89425C122.789 3.92204 126.008 0.700684 129.983 0.700684H466.285C470.257 0.700684 473.479 3.91988 473.479 7.89425V246.922C473.479 250.894 470.26 254.115 466.285 254.115Z" fill="#D3DFFF"/>
<path d="M465.677 254.817H130.589C125.901 254.817 122.086 251.002 122.086 246.314V8.50326C122.086 3.81471 125.901 0 130.589 0H465.675C470.363 0 474.178 3.81471 474.178 8.50326V246.316C474.178 251.002 470.366 254.817 465.677 254.817ZM130.589 1.40463C126.675 1.40463 123.491 4.5893 123.491 8.50326V246.316C123.491 250.23 126.675 253.415 130.589 253.415H465.675C469.589 253.415 472.773 250.23 472.773 246.316V8.50326C472.773 4.5893 469.589 1.40463 465.675 1.40463H130.589Z" fill="#46B2C8"/>
<path d="M467.11 9.63818H129.154V217.745H467.11V9.63818Z" fill="white"/>
<path d="M467.813 218.448H128.453V8.93652H467.813V218.448ZM129.858 217.043H466.408V10.339H129.858V217.043Z" fill="#46B2C8"/>
<path d="M333.361 27.8506H256.92V36.7854H333.361V27.8506Z" fill="#D3DFFF"/>
<path d="M394.244 45.5107H196.039V48.8529H394.244V45.5107Z" fill="#D3DFFF"/>
<path d="M432.372 145.52H355.898V148.862H432.372V145.52Z" fill="#46B2C8"/>
<path d="M421.747 153.824H355.898V157.166H421.747V153.824Z" fill="#46B2C8"/>
<path d="M397.433 162.129H355.898V165.471H397.433V162.129Z" fill="#46B2C8"/>
<path d="M423.161 177.587H355.898V180.929H423.161V177.587Z" fill="#D3DFFF"/>
<path d="M413.818 185.892H355.898V189.234H413.818V185.892Z" fill="#D3DFFF"/>
<path d="M190.6 137.325H158.141V188.204H190.6V137.325Z" fill="#D3DFFF"/>
<path d="M235.33 137.245H198.842V154.051H235.33V137.245Z" fill="#46B2C8"/>
<path d="M235.33 162.242H198.842V188.274H235.33V162.242Z" fill="#D3DFFF"/>
<path d="M328.922 188.64H261.36C258.482 188.64 256.141 186.299 256.141 183.421V149.488C256.141 146.61 258.482 144.269 261.36 144.269H328.922C331.8 144.269 334.141 146.61 334.141 149.488V183.421C334.144 186.299 331.8 188.64 328.922 188.64ZM261.36 145.084C258.933 145.084 256.956 147.061 256.956 149.488V183.421C256.956 185.848 258.93 187.825 261.36 187.825H328.922C331.349 187.825 333.326 185.848 333.326 183.421V149.488C333.326 147.061 331.349 145.084 328.922 145.084H261.36Z" fill="#46B2C8"/>
<path d="M264.259 179.233L263.527 178.866L268.145 169.636L273.847 175.61L280.64 160.941L289.749 169.498L299.769 159.475L309.565 165.461L322.135 152.357L322.724 152.923L309.701 166.501L299.892 160.507L289.766 170.635L280.907 162.311L274.085 177.043L268.354 171.04L264.259 179.233Z" fill="#3A6BEA"/>
<path d="M306.366 177.346H298.607V181.431H306.366V177.346Z" fill="#46B2C8"/>
<path d="M324.947 178.981H311.471V179.799H324.947V178.981Z" fill="#3A6BEA"/>
<path d="M325.602 89.6775C322.862 79.4676 315.129 71.3095 305.178 67.9717L295.145 97.8722L325.602 89.6775Z" fill="#D3DFFF"/>
<path d="M295.144 97.8729L281.184 126.155C285.393 128.237 290.129 129.413 295.144 129.413C312.562 129.413 326.684 115.292 326.684 97.8729C326.684 95.0378 326.304 92.2911 325.603 89.6782L295.144 97.8729Z" fill="#46B2C8"/>
<path d="M305.177 67.9743C302.025 66.917 298.652 66.3345 295.144 66.3345C277.725 66.3345 263.604 80.4562 263.604 97.8748C263.604 110.279 270.769 121.007 281.182 126.157L295.142 97.8748L305.177 67.9743Z" fill="#C2E2E9"/>
<path d="M218.953 120.021H174.527V123.363H218.953V120.021Z" fill="#D3DFFF"/>
<path d="M235.739 112.705H157.736V67.6099H235.739V112.705ZM158.554 111.887H234.924V68.4276H158.554V111.887Z" fill="#46B2C8"/>
<path d="M230.026 77.4549C227.437 76.935 224.874 78.6222 223.236 80.7C222.459 81.6839 221.821 82.7649 221.191 83.8524C220.492 85.0606 219.803 86.2754 218.96 87.3822C217.354 89.4859 214.862 91.2444 212.254 90.8474C208.02 90.2023 205.705 84.3918 201.424 84.4673C199.424 84.5018 197.711 85.8848 196.35 87.3542C194.986 88.8235 193.743 90.4914 191.972 91.4192C189.493 92.7159 186.433 92.2952 183.863 91.1926C181.294 90.0879 179.041 88.3704 176.596 87.0068C172.503 84.7219 167.854 83.5158 163.174 83.3928V105.452H230.309V85.1599V77.5305C230.214 77.5024 230.123 77.4744 230.026 77.4549Z" fill="#D3DFFF"/>
<path d="M183.862 91.1926C186.431 92.2974 189.491 92.7159 191.97 91.4192C193.744 90.4914 194.986 88.8235 196.348 87.3542C197.709 85.8848 199.423 84.5018 201.423 84.4673C205.703 84.3918 208.019 90.2023 212.252 90.8474C214.863 91.2444 217.353 89.4859 218.958 87.3822C219.801 86.2754 220.49 85.0585 221.189 83.8524C218.587 83.971 215.987 84.1005 213.734 82.8987C211.492 81.7033 210.023 79.3709 207.788 78.1627C203.777 75.9921 198.87 78.0634 194.874 80.2599C192.486 81.5739 189.821 82.9828 187.176 82.3355C184.183 81.6019 182.429 78.5532 179.937 76.7365C175.164 73.2562 167.999 74.9456 163.919 79.2221C163.916 79.2242 163.914 79.2285 163.91 79.2307C163.422 79.7442 163.17 80.4023 163.17 81.0733V83.3906C167.848 83.5136 172.5 84.7197 176.593 87.0047C179.039 88.3683 181.292 90.0879 183.862 91.1926Z" fill="#46B2C8"/>
<path d="M432.764 130.762H354.643V67.5493H432.764V130.762ZM355.579 129.827H431.828V68.4857H355.579V129.827Z" fill="#46B2C8"/>
<path d="M375.733 93.8828H367.564V121.382H375.733V93.8828Z" fill="#46B2C8"/>
<path d="M375.733 79.9985H367.564V93.8829H375.733V79.9985Z" fill="#D3DFFF"/>
<path d="M390.436 79.9985H382.268V100.621H390.436V79.9985Z" fill="#D3DFFF"/>
<path d="M390.436 100.621H382.268V121.382H390.436V100.621Z" fill="#46B2C8"/>
<path d="M405.138 89.084H396.969V121.382H405.138V89.084Z" fill="#46B2C8"/>
<path d="M405.138 79.9985H396.969V89.0843H405.138V79.9985Z" fill="#D3DFFF"/>
<path d="M419.839 101.132H411.67V121.382H419.839V101.132Z" fill="#46B2C8"/>
<path d="M419.839 79.9985H411.67V101.133H419.839V79.9985Z" fill="#D3DFFF"/>
<path d="M137.288 320.826L121.999 304.913L122.032 293.173L103.461 293.726L104.995 320.826H137.288Z" fill="#023A59"/>
<path d="M122.151 249.062L101.09 251.871L101.921 266.563L122.103 266.073L122.151 249.062Z" fill="#0F808C"/>
<path d="M122.104 266.073L101.922 266.563L103.458 293.726L122.029 293.173L122.104 266.073Z" fill="#46B2C8"/>
<path d="M121.596 304.058L113.641 307.802L114.438 309.497L122.393 305.753L121.596 304.058Z" fill="white"/>
<path d="M166.612 244.227L146.33 243.446L143.668 258.966L163.098 261.803L166.612 244.227Z" fill="#0F808C"/>
<path d="M171.137 305.07L158.657 284.009L160.271 275.94C154.767 274.68 146.27 272.738 141.488 271.672L137.283 296.178L171.137 305.07Z" fill="#023A59"/>
<path d="M163.097 261.803L143.669 258.966L141.49 271.672C146.272 272.738 154.768 274.68 160.272 275.94L163.097 261.803Z" fill="#46B2C8"/>
<path d="M158.359 283.105L150.48 285.758L151.078 287.533L158.957 284.88L158.359 283.105Z" fill="white"/>
<path d="M180.188 246.571C180.188 246.571 171.765 257.175 156.161 253.74C140.565 250.314 143.375 259.357 134.632 261.23C125.898 263.102 101.562 247.815 93.4469 262.166C93.4469 262.166 88.616 207.83 90.8168 173.44C91.4166 164.153 92.5213 156.319 94.3833 151.406L131.721 150.89L139.94 150.778C139.94 150.778 139.968 150.955 140.033 151.311C140.173 152.051 140.453 153.557 140.921 155.71C143.975 169.871 154.683 211.871 180.188 246.571Z" fill="#46B2C8"/>
<path d="M140.923 155.71C132.573 161.223 115.163 170.697 90.8164 173.439C91.4162 164.153 92.5209 156.318 94.383 151.405L131.721 150.89L140.032 151.31C140.172 152.048 140.455 153.556 140.923 155.71Z" fill="#0F808C"/>
<path d="M99.6319 202.18L108.629 171.653L67.7769 159.613L58.7799 190.139L99.6319 202.18Z" fill="white"/>
<path d="M99.9437 202.753L58.1934 190.448L67.4561 159.024L109.206 171.329L99.9437 202.753ZM59.3563 189.816L99.3093 201.592L108.043 171.963L68.0904 160.187L59.3563 189.816Z" fill="#46B2C8"/>
<path d="M100.616 173.982L97.9375 183.071L98.8357 183.336L101.515 174.246L100.616 173.982Z" fill="#46B2C8"/>
<path d="M95.0045 172.326L88.5547 194.21L89.4529 194.475L95.9027 172.591L95.0045 172.326Z" fill="#46B2C8"/>
<path d="M89.3931 170.677L82.9434 192.562L83.8416 192.826L90.2913 170.942L89.3931 170.677Z" fill="#46B2C8"/>
<path d="M83.7818 169.016L77.332 190.9L78.2302 191.165L84.68 169.281L83.7818 169.016Z" fill="#46B2C8"/>
<path d="M78.1707 167.37L73.2422 184.093L74.1404 184.357L79.0689 167.635L78.1707 167.37Z" fill="#46B2C8"/>
<path d="M163.555 95.5522C163.555 95.5522 164.709 84.4296 165.747 84.6173C166.785 84.805 166.67 87.5215 166.67 87.5215C166.67 87.5215 169.098 81.3182 170.226 81.3247C171.355 81.3312 170.202 83.8599 170.202 83.8599C170.202 83.8599 171.456 81.3247 172.392 81.5189C173.329 81.7153 172.561 83.8664 172.561 83.8664C172.561 83.8664 173.54 81.7865 174.487 82.1554C175.437 82.5244 174.839 84.2267 174.839 84.2267C174.839 84.2267 175.357 82.8782 176.242 83.7779C177.126 84.6755 172.589 97.699 172.589 97.699L166.193 99.5244L163.555 95.5522Z" fill="#F9B384"/>
<path d="M172.62 97.74C172.62 97.74 167.04 120.682 152.972 127.384C149.677 128.965 145.915 129.649 141.655 128.937L139.137 124.454L122.625 95.0818L128.39 93.0601C128.39 93.0601 141.345 97.891 148.366 108.655C148.366 108.655 154.918 108.038 163.65 94.9329L172.62 97.74Z" fill="#023A59"/>
<path d="M152.971 127.384C149.677 128.965 145.914 129.649 141.655 128.937L139.137 124.453L139.782 113.493C139.784 113.493 149.332 118.913 152.971 127.384Z" fill="#023A59"/>
<path d="M94.8527 171.646C94.8527 171.646 93.5905 182.447 92.4858 182.263C91.3811 182.08 91.5148 179.361 91.5148 179.361C91.5148 179.361 88.9019 185.578 87.7001 185.575C86.4983 185.573 87.7368 183.038 87.7368 183.038C87.7368 183.038 86.3904 185.582 85.3936 185.39C84.3968 185.198 85.2253 183.042 85.2253 183.042C85.2253 183.042 84.1724 185.127 83.1648 184.762C82.1572 184.397 82.798 182.691 82.798 182.691C82.798 182.691 82.2391 184.041 81.3027 183.146C80.3663 182.25 85.2577 169.203 85.2577 169.203L92.0758 167.348L94.8527 171.646Z" fill="#F9B384"/>
<path d="M117.241 93.2915C89.5496 96.6466 81.398 135.022 84.5568 171.061L94.8531 171.685C94.8531 171.685 96.5684 136.427 110.766 119.578L122.622 95.0845L117.241 93.2915Z" fill="#023A59"/>
<path d="M122.621 95.0845L141.809 108.032C141.809 108.032 147.112 132.837 146.801 154.834C146.801 154.834 109.673 168.563 91.2637 154.21L105.772 107.096L122.621 95.0845Z" fill="#023A59"/>
<path d="M133.639 72.6594C135.417 66.4583 129.177 59.2043 117.243 65.3665C117.243 65.3665 105.387 67.3947 107.493 87.9872L119.973 88.4554L133.639 72.6594Z" fill="#023A59"/>
<path d="M119.738 64.9374C121.37 58.3846 114.252 57.336 113.065 61.3557C112.907 61.8908 109.438 59.9791 108.467 63.1034C107.354 66.6851 111.22 69.0693 115.585 68.1717L119.738 64.9374Z" fill="#023A59"/>
<path d="M128.395 80.7316V93.0603L123.013 100.623L117.246 93.2933L117.555 80.4985L128.395 80.7316Z" fill="#F9B384"/>
<path d="M128.392 84.9453V92.8552C124.536 91.1787 122.879 86.1147 122.879 86.1147L128.392 84.9453Z" fill="#023A59"/>
<path d="M133.638 72.6593C133.638 72.6593 137.472 92.9001 122.882 86.1143L118.09 80.6145L121.072 69.4983L128.738 67.6255L133.638 72.6593Z" fill="#F9B384"/>
<path d="M133.64 72.6593C133.64 72.6593 130.582 67.9017 126.759 70.2017C122.938 72.5018 123.132 80.5757 119.153 78.5475C115.175 76.5193 117.477 70.2794 117.477 70.2794L123.326 65.8325L129.879 66.5726L133.64 72.6593Z" fill="#023A59"/>
<path d="M119.716 82.021C121.04 81.2565 121.406 79.4121 120.534 77.9013C119.662 76.3906 117.881 75.7855 116.557 76.55C115.233 77.3144 114.867 79.1588 115.74 80.6696C116.612 82.1804 118.392 82.7854 119.716 82.021Z" fill="#F9B384"/>
<path d="M123.092 109.126C124.126 109.126 124.964 108.288 124.964 107.253C124.964 106.219 124.126 105.38 123.092 105.38C122.057 105.38 121.219 106.219 121.219 107.253C121.219 108.288 122.057 109.126 123.092 109.126Z" fill="#023A59"/>
<path d="M96.4055 157.343L95.4863 157.164C95.4993 157.095 96.8629 150.15 99.1522 142.378C102.242 131.896 105.461 124.979 108.723 121.815L109.375 122.486C101.847 129.79 96.4594 157.069 96.4055 157.343Z" fill="#023A59"/>
<path d="M92.9346 135.24C91.2149 133.949 87.1888 134.083 87.1478 134.085L87.1133 133.151C87.2924 133.145 91.5149 133.007 93.4956 134.493L92.9346 135.24Z" fill="#023A59"/>
<path d="M499.065 292.278L498.752 310.061L494.695 320.826H516.692L515.445 291.81L499.065 292.278Z" fill="#023A59"/>
<path d="M466.694 294.149V308.893L449.377 320.826H484.244L482.139 292.512L466.694 294.149Z" fill="#023A59"/>
<path d="M467.267 308.151L466.133 309.642L471.359 313.62L472.493 312.13L467.267 308.151Z" fill="white"/>
<path d="M495.942 149.531L495.849 149.887L492.742 162.14L485.965 188.846C485.02 193.105 484.308 197.701 483.784 202.512C480.48 232.905 484.748 271.751 486.966 288.505C487.546 292.904 484.12 296.799 479.684 296.799H467.357C464.522 296.799 461.937 295.161 460.712 292.604C444.996 259.694 447.55 210.543 450.705 198.514C455.693 179.484 459.128 151.093 459.128 151.093L469.601 150.645L495.942 149.531Z" fill="#023A59"/>
<path d="M519.539 288.207C519.436 292.438 515.981 295.817 511.752 295.817H501.193C497.29 295.817 493.986 292.924 493.479 289.048C491.466 273.697 486.562 235.021 483.783 202.512C482.333 185.458 481.47 170.106 481.921 160.708C482.08 157.141 482.437 154.436 483.026 152.817L495.848 149.887L508.906 146.91C508.906 146.91 512.145 150.364 515.123 168.756C518.219 187.948 521.019 223.413 519.539 288.207Z" fill="#023A59"/>
<path d="M482.452 228.494C481.874 216.506 482.241 206.285 483.578 197.249C484.008 194.34 485.542 191.708 487.896 189.837L496.669 182.864L497.251 183.597L488.478 190.571C486.31 192.293 484.899 194.714 484.504 197.387C483.177 206.363 482.81 216.525 483.386 228.45L482.452 228.494Z" fill="#023A59"/>
<path d="M456.146 232.367L456.031 231.44C461.909 230.71 466.947 230.607 471.43 231.127L471.322 232.057C466.912 231.545 461.948 231.649 456.146 232.367Z" fill="#023A59"/>
<path d="M498.265 230.184L498.15 229.256C504.028 228.527 509.066 228.423 513.549 228.943L513.442 229.873C509.033 229.362 504.069 229.463 498.265 230.184Z" fill="#023A59"/>
<path d="M472.419 285.679C464.415 285.679 458.483 284.252 458.393 284.231L458.617 283.323C458.753 283.355 472.376 286.626 486.146 283.139L486.377 284.045C481.516 285.275 476.674 285.679 472.419 285.679Z" fill="#023A59"/>
<path d="M505.396 285.732C504.132 285.732 502.934 285.695 501.845 285.637C496.668 285.365 492.726 284.605 492.688 284.597L492.867 283.678C493.02 283.708 508.421 286.64 518.672 282.849L518.996 283.727C514.749 285.298 509.688 285.732 505.396 285.732Z" fill="#023A59"/>
<path d="M515.121 168.758C509.159 165.575 500.93 163.497 492.74 162.14C489.061 161.523 485.382 161.064 481.919 160.708C470.958 159.594 462.168 159.594 462.168 159.594L469.601 150.646L495.941 149.533L495.849 149.889L508.907 146.912C508.905 146.912 512.143 150.366 515.121 168.758Z" fill="#1F3C88"/>
<path d="M479.784 79.0869H468.955V97.1615H479.784V79.0869Z" fill="#E28B6D"/>
<path d="M474.03 86.6017C474.03 86.6017 472.934 90.5416 468.957 93.2386V85.3481L474.03 86.6017Z" fill="#023A59"/>
<path d="M463.372 69.8623L462.611 77.4701C462.611 77.4701 459.068 82.2256 461.279 82.2256C463.657 82.2256 463.277 83.1771 463.277 83.1771C463.277 83.1771 461.946 93.0677 474.024 86.6013L476.592 71.7653L463.372 69.8623Z" fill="#E28B6D"/>
<path d="M463.373 69.8624C463.373 69.8624 466.655 69.4352 467.509 72.9047C468.366 76.3763 469.507 78.5145 472.407 76.0915L475.594 70.8614L470.126 68.5786L463.373 69.8624Z" fill="#023A59"/>
<path d="M463.373 69.8627C463.373 67.39 466.305 61.4932 475.546 63.064C484.378 64.5635 485.769 76.9484 481.206 82.6078C481.206 82.6078 478.876 86.2694 475.738 79.5656L470.366 72.3375L469.225 70.0547L463.373 69.8627Z" fill="#023A59"/>
<path d="M476.22 79.1102C475.346 80.6227 473.571 81.2311 472.25 80.4695C470.932 79.7078 470.569 77.8652 471.443 76.3527C472.317 74.8402 474.093 74.2317 475.413 74.9934C476.732 75.755 477.094 77.5977 476.22 79.1102Z" fill="#E28B6D"/>
<path d="M496.723 93.2144C517.471 99.9225 533.852 128.004 514.664 128.472C495.476 128.941 483.775 111.155 483.775 111.155L496.723 93.2144Z" fill="#C2E2E9"/>
<path d="M404.911 114.633C404.911 114.633 394.66 110.167 394.312 111.162C393.965 112.158 396.386 113.395 396.386 113.395C396.386 113.395 389.792 112.456 389.242 113.442C388.694 114.428 391.462 114.67 391.462 114.67C391.462 114.67 388.638 114.515 388.347 115.425C388.055 116.336 390.308 116.726 390.308 116.726C390.308 116.726 388.016 116.556 387.87 117.563C387.725 118.571 389.501 118.89 389.501 118.89C389.501 118.89 388.073 118.679 388.42 119.889C388.767 121.1 402.337 123.559 402.337 123.559L407.071 118.89L404.911 114.633Z" fill="#E28B6D"/>
<path d="M507.379 155.84L461.054 160.895C457.151 161.316 453.772 158.2 453.893 154.269L454.473 135.154L454.745 126.347L454.754 126.131C454.754 126.131 454.417 126.535 453.742 127.16C453.742 127.169 453.733 127.169 453.722 127.18C453.282 127.583 452.702 128.077 451.981 128.621C445.832 133.264 429.432 141.239 402.334 123.557L404.908 114.637L434.159 115.835C434.159 115.835 447.273 105.239 458.918 97.9652C466.528 93.2098 475.336 90.5796 484.303 90.8148C488.355 90.9184 492.709 91.5635 496.724 93.212C506.6 97.2921 511.495 133.724 513.105 148.728C513.491 152.275 510.926 155.458 507.379 155.84Z" fill="#46B2C8"/>
<path d="M430.931 124.443C430.083 118.63 433.712 115.597 433.867 115.472L434.461 116.197C434.452 116.203 433.602 116.913 432.862 118.264C431.874 120.065 431.537 122.1 431.859 124.309L430.931 124.443Z" fill="#C2E2E9"/>
<path d="M458.891 122.854C458.891 122.854 458.602 130.399 454.473 135.152L454.745 126.345C456.289 125.091 458.059 123.622 458.891 122.854Z" fill="#C2E2E9"/>
<path d="M445.176 132.908L444.992 131.991C451.767 130.636 460.89 119.285 460.982 119.17L461.714 119.755C461.69 119.785 459.347 122.711 456.173 125.768C451.877 129.905 448.177 132.308 445.176 132.908Z" fill="#C2E2E9"/>
<path d="M594.149 320.125H9.12695V321.529H594.149V320.125Z" fill="#023A59"/>
</svg>
